# xmcd CD database file
#
# Track frame offsets:
#	150
#	25476
#	43604
#	61848
#	77513
#	95736
#	116550
#	143063
#	159402
#	174074
#	192379
#	216130
#	249195
#
# Disc length: 3563 seconds
#
# Revision: 0
# Processed by: cddbd v1.5.2PL0 Copyright (c) Steve Scherf et al.
# Submitted via: Feurio! 1.68 - http://www.feurio.com
#
DISCID=a40de90d
DTITLE=Jean-Pierre Froidebise - freezin' to the bone
DYEAR=1900
DGENRE=
TTITLE0=Where's your sister
TTITLE1=Baby B.
TTITLE2=Send my body to Bourbon Street
TTITLE3=Slide Dance
TTITLE4=St. James Infirmary
TTITLE5=Poker Game of Life
TTITLE6=Jesus on the Mainline
TTITLE7=California
TTITLE8=Some people never learn
TTITLE9=I shall be released
TTITLE10=Big Fat Louis
TTITLE11=The very last song
TTITLE12=Send my body to Bourbon Street (Horny Mix)
EXTD=
EXTT0=
EXTT1=
EXTT2=
EXTT3=
EXTT4=
EXTT5=
EXTT6=
EXTT7=
EXTT8=
EXTT9=
EXTT10=
EXTT11=
EXTT12=
PLAYORDER=
